<?xml version="1.0" standalone="no"?>
<!DOCTYPE svg PUBLIC "-//W3C//DTD SVG 20010904//EN"
 "http://www.w3.org/TR/2001/REC-SVG-20010904/DTD/svg10.dtd">
<svg version="1.0" xmlns="http://www.w3.org/2000/svg"
 width="1280.000000pt" height="1280.000000pt" viewBox="0 0 1280.000000 1280.000000"
 preserveAspectRatio="xMidYMid meet">
<metadata>
Created by potrace 1.15, written by Peter Selinger 2001-2017
</metadata>
<g transform="translate(0.000000,1280.000000) scale(0.100000,-0.100000)"
fill="#607d8b" stroke="none">
<path d="M6105 12794 c-651 -38 -1213 -146 -1785 -342 -1746 -599 -3163 -1947
-3858 -3667 -413 -1026 -553 -2157 -402 -3255 174 -1254 702 -2405 1545 -3365
135 -153 463 -476 630 -619 1472 -1262 3410 -1787 5319 -1440 2143 389 3958
1871 4781 3904 534 1319 610 2797 214 4163 -310 1070 -881 2021 -1680 2802
-1113 1086 -2561 1725 -4113 1815 -160 9 -520 11 -651 4z m835 -958 c1555
-165 2918 -938 3847 -2181 598 -801 952 -1734 1054 -2780 18 -177 18 -770 1
-950 -87 -907 -362 -1716 -835 -2460 -399 -626 -944 -1185 -1562 -1600 -486
-326 -1049 -584 -1595 -730 -74 -20 -143 -39 -154 -42 -21 -6 -22 -11 25 187
43 184 70 367 68 467 -2 194 -1 206 34 318 66 207 125 351 229 562 72 144 119
217 207 317 132 150 208 376 232 687 12 148 9 226 -22 539 -25 256 6 470 131
903 126 439 245 726 357 863 97 120 207 298 348 564 152 288 320 520 526 731
128 130 224 202 355 268 123 61 201 124 276 222 74 97 120 183 160 299 29 87
32 105 33 220 0 192 -39 348 -108 426 -49 56 -85 63 -169 35 -110 -37 -146
-27 -256 73 -40 36 -76 66 -81 66 -17 0 -31 -28 -46 -95 -9 -37 -25 -85 -35
-105 -40 -78 -125 -117 -151 -69 -15 28 -2 76 61 235 81 203 130 409 130 550
0 225 -166 717 -289 856 l-37 41 -34 -18 c-78 -39 -192 -130 -525 -416 -292
-250 -483 -404 -765 -616 -438 -328 -785 -555 -925 -604 -68 -24 -143 -23
-362 8 -115 16 -125 16 -204 -1 -195 -42 -469 -182 -999 -513 -361 -225 -494
-266 -960 -298 -456 -31 -689 -89 -895 -224 -124 -80 -147 -107 -153 -174 -13
-163 109 -349 475 -717 122 -124 223 -230 223 -234 0 -5 -51 -90 -114 -190
-184 -294 -248 -416 -333 -636 -67 -175 -159 -322 -317 -505 -298 -345 -714
-1023 -926 -1508 -34 -79 -52 -106 -94 -144 -117 -106 -356 -265 -555 -371
l-114 -60 -62 81 c-543 722 -905 1588 -1034 2472 -46 315 -55 446 -55 815 -1
362 6 472 45 760 210 1531 1082 2919 2379 3787 749 500 1666 820 2560 893 74
6 155 12 180 14 109 9 694 -4 830 -18z"/>
</g>
</svg>
